

<svg width="166" height="29" viewBox="0 0 166 29" fill="none" xmlns="http://www.w3.org/2000/svg">
<path d="M0.32 -1.90735e-06H6.8V28H0.32V-1.90735e-06ZM43.125 -1.90735e-06V28H37.805L23.845 11V28H17.445V-1.90735e-06H22.805L36.725 17V-1.90735e-06H43.125ZM94.7578 -1.90735e-06V28H89.4378L75.4778 11V28H69.0778V-1.90735e-06H74.4378L88.3578 17V-1.90735e-06H94.7578ZM117.823 28.48C113.823 28.48 110.703 27.3733 108.463 25.16C106.249 22.9467 105.143 19.7867 105.143 15.68V-1.90735e-06H111.623V15.44C111.623 20.4533 113.703 22.96 117.863 22.96C119.889 22.96 121.436 22.36 122.503 21.16C123.569 19.9333 124.102 18.0267 124.102 15.44V-1.90735e-06H130.503V15.68C130.503 19.7867 129.383 22.9467 127.143 25.16C124.929 27.3733 121.823 28.48 117.823 28.48ZM158.746 28L153.346 20.2H153.026H147.386V28H140.906V-1.90735e-06H153.026C155.506 -1.90735e-06 157.653 0.413332 159.466 1.24C161.306 2.06667 162.719 3.24 163.706 4.76C164.693 6.28 165.186 8.08 165.186 10.16C165.186 12.24 164.679 14.04 163.666 15.56C162.679 17.0533 161.266 18.2 159.426 19L165.706 28H158.746ZM158.626 10.16C158.626 8.58667 158.119 7.38667 157.106 6.56C156.093 5.70667 154.613 5.28 152.666 5.28H147.386V15.04H152.666C154.613 15.04 156.093 14.6133 157.106 13.76C158.119 12.9067 158.626 11.7067 158.626 10.16Z" fill="#FF912C"/>
</svg>
