<svg width="267" height="30" viewBox="0 0 267 30" fill="none" xmlns="http://www.w3.org/2000/svg">
<path d="M11.52 29.48C9.30667 29.48 7.16 29.1867 5.08 28.6C3.02667 27.9867 1.37333 27.2 0.12 26.24L2.32 21.36C3.52 22.24 4.94667 22.9467 6.6 23.48C8.25333 24.0133 9.90667 24.28 11.56 24.28C13.4 24.28 14.76 24.0133 15.64 23.48C16.52 22.92 16.96 22.1867 16.96 21.28C16.96 20.6133 16.6933 20.0667 16.16 19.64C15.6533 19.1867 14.9867 18.8267 14.16 18.56C13.36 18.2933 12.2667 18 10.88 17.68C8.74667 17.1733 7 16.6667 5.64 16.16C4.28 15.6533 3.10667 14.84 2.12 13.72C1.16 12.6 0.68 11.1067 0.68 9.24C0.68 7.61333 1.12 6.14667 2 4.84C2.88 3.50667 4.2 2.45333 5.96 1.68C7.74667 0.906666 9.92 0.52 12.48 0.52C14.2667 0.52 16.0133 0.733332 17.72 1.16C19.4267 1.58667 20.92 2.2 22.2 3L20.2 7.92C17.6133 6.45333 15.0267 5.72 12.44 5.72C10.6267 5.72 9.28 6.01333 8.4 6.6C7.54667 7.18667 7.12 7.96 7.12 8.92C7.12 9.88 7.61333 10.6 8.6 11.08C9.61333 11.5333 11.1467 11.9867 13.2 12.44C15.3333 12.9467 17.08 13.4533 18.44 13.96C19.8 14.4667 20.96 15.2667 21.92 16.36C22.9067 17.4533 23.4 18.9333 23.4 20.8C23.4 22.4 22.9467 23.8667 22.04 25.2C21.16 26.5067 19.8267 27.5467 18.04 28.32C16.2533 29.0933 14.08 29.48 11.52 29.48ZM45.2278 29.48C42.3745 29.48 39.7878 28.8667 37.4678 27.64C35.1745 26.3867 33.3611 24.6667 32.0278 22.48C30.7211 20.2667 30.0678 17.7733 30.0678 15C30.0678 12.2267 30.7211 9.74667 32.0278 7.56C33.3611 5.34667 35.1745 3.62667 37.4678 2.4C39.7878 1.14667 42.3878 0.52 45.2678 0.52C47.6945 0.52 49.8811 0.946666 51.8278 1.8C53.8011 2.65333 55.4545 3.88 56.7878 5.48L52.6278 9.32C50.7345 7.13333 48.3878 6.04 45.5878 6.04C43.8545 6.04 42.3078 6.42667 40.9478 7.2C39.5878 7.94667 38.5211 9 37.7478 10.36C37.0011 11.72 36.6278 13.2667 36.6278 15C36.6278 16.7333 37.0011 18.28 37.7478 19.64C38.5211 21 39.5878 22.0667 40.9478 22.84C42.3078 23.5867 43.8545 23.96 45.5878 23.96C48.3878 23.96 50.7345 22.8533 52.6278 20.64L56.7878 24.48C55.4545 26.1067 53.8011 27.3467 51.8278 28.2C49.8545 29.0533 47.6545 29.48 45.2278 29.48ZM90.8438 0.999998V29H84.3638V17.52H71.6438V29H65.1638V0.999998H71.6438V12.04H84.3638V0.999998H90.8438ZM119.308 29L113.908 21.2H113.588H107.948V29H101.468V0.999998H113.588C116.068 0.999998 118.215 1.41333 120.028 2.24C121.868 3.06667 123.282 4.24 124.268 5.76C125.255 7.28 125.748 9.08 125.748 11.16C125.748 13.24 125.242 15.04 124.228 16.56C123.242 18.0533 121.828 19.2 119.988 20L126.268 29H119.308ZM119.188 11.16C119.188 9.58667 118.682 8.38667 117.668 7.56C116.655 6.70667 115.175 6.28 113.228 6.28H107.948V16.04H113.228C115.175 16.04 116.655 15.6133 117.668 14.76C118.682 13.9067 119.188 12.7067 119.188 11.16ZM134.883 0.999998H141.363V29H134.883V0.999998ZM157.808 6.28H148.848V0.999998H173.248V6.28H164.288V29H157.808V6.28ZM186.925 6.28H177.965V0.999998H202.365V6.28H193.405V29H186.925V6.28ZM231.531 23.8V29H209.851V0.999998H231.011V6.2H216.291V12.28H229.291V17.32H216.291V23.8H231.531ZM266.367 0.999998V29H261.047L247.087 12V29H240.687V0.999998H246.047L259.967 18V0.999998H266.367Z" fill="#AD00FF"/>
</svg>
