<svg width="1440" height="1613" viewBox="0 -200 1440 1613" fill="none" preserveAspectRatio="xMaxYMax meet" xmlns="http://www.w3.org/2000/svg">
<path d="M593.844 406.752C382.455 410.697 103.29 253.943 -7.93424 176.188C-9.26319 175.259 -10.9997 176.181 -10.9979 177.802C-10.8244 333.177 -0.0976772 650.764 -0.0976772 681.962C-0.0976772 713.415 27.256 720.946 40.9328 720.78C486.597 720.946 1383.43 721.178 1405.45 720.78C1427.31 720.385 1437.49 700.331 1439.92 690.141C1439.96 689.994 1439.97 689.848 1439.97 689.697V5.3007C1439.97 5.20654 1439.98 5.11574 1439.99 5.02278L1439.99 4.97342C1440.11 3.36958 1439.39 -5.46179 1419.46 5.13429C1385.43 23.2244 860.542 401.775 593.844 406.752Z" fill="#AD00FF"/>
<rect x="-35" y="687" width="1513" height="855" fill="#9300D9"/>
<rect x="-68" y="1333" width="1575" height="680" fill="#7E24B5"/>
<path d="M568.995 1551.65C378.926 1583.01 100.727 1436.35 -14.6134 1359.11L-99.6711 1332.58L-113 1215.84L390.896 1177.43L1495.43 1119.26C1656.25 1277.54 1889.16 1566.99 1534.17 1458.56C1090.43 1323.02 806.581 1512.44 568.995 1551.65Z" fill="#9300D9"/>
<path d="M872.726 875.176C1165.56 960.715 1415.61 704.943 1537 764.56C1538.36 765.229 1540 764.167 1540 762.65C1539.78 635.805 1527.43 667.693 1527.43 641.19C1527.43 614.449 1497.28 608.046 1482.21 608.187C990.945 608.046 2.35761 607.848 -21.9113 608.187C-45.9258 608.522 -57.1587 625.456 -59.8854 634.147C-59.9435 634.332 -59.9693 634.519 -59.9693 634.713L-59.9692 1216.42C-59.9692 1216.56 -59.9863 1216.7 -59.9951 1216.84C-60.0907 1218.38 -58.9578 1225.49 -37.3551 1216.63C0.151365 1201.25 597.633 794.82 872.726 875.176Z" fill="#AD00FF"/>
</svg>
