<svg width="1440" height="488" viewBox="0 0 1440 488" fill="none" xmlns="http://www.w3.org/2000/svg">
<path d="M599.263 409.009C385.961 412.975 104.263 255.323 -7.93727 177.144C-9.26647 176.218 -10.9997 177.14 -10.9979 178.76C-10.8241 334.987 0 654.372 0 685.746C0 717.373 27.5987 724.946 41.3981 724.779C491.055 724.946 1395.92 725.179 1418.14 724.779C1440.19 724.381 1450.47 704.215 1452.92 693.969C1452.96 693.821 1452.97 693.676 1452.97 693.524V5.32974C1452.97 5.23604 1452.98 5.14565 1452.99 5.05318L1452.99 5.00137C1453.11 3.38956 1452.38 -5.49286 1432.27 5.16277C1397.94 23.3532 868.35 404.004 599.263 409.009Z" fill="#9300D9"/>
</svg>
