<svg width="749" height="1024" viewBox="0 0 749 1024" fill="none" xmlns="http://www.w3.org/2000/svg">
<path d="M11.3492 1018.59C51.2848 1065.79 162.015 1180.15 388.922 1180.15C639.427 1180.15 806.431 1031.3 806.431 826.178C806.431 664.62 672.102 566.597 586.785 530.291V524.846C668.471 486.725 773.756 381.441 773.756 241.666C773.756 38.3576 597.676 -90.5256 387.107 -90.5256C183.798 -90.5256 45.839 69.2168 45.839 69.2168C33.1322 81.9237 31.317 103.707 45.839 116.413L134.786 199.915C151.124 214.437 171.092 212.622 183.798 198.1C214.658 161.795 272.746 110.968 367.139 110.968C459.717 110.968 543.219 178.132 543.219 277.971C543.219 370.549 466.978 444.975 318.127 444.975H216.473C194.69 444.975 181.983 457.681 181.983 481.28V595.641C181.983 617.424 196.505 631.946 216.473 631.946H318.127C481.5 631.946 568.632 717.263 568.632 811.656C568.632 911.495 474.239 982.29 376.215 982.29C265.485 982.29 158.385 891.527 152.939 884.266C138.417 869.744 122.08 869.744 105.742 884.266L13.1644 973.214C2.27288 985.92 0.45763 1005.89 11.3492 1018.59Z" fill="white"/>
</svg>
