<svg width="803" height="1024" viewBox="0 0 803 1024" fill="none" xmlns="http://www.w3.org/2000/svg">
<path d="M65.3492 1018.59C105.285 1065.79 216.015 1180.15 442.922 1180.15C693.427 1180.15 860.431 1031.3 860.431 826.178C860.431 664.62 726.102 566.597 640.785 530.291V524.846C722.471 486.725 827.756 381.441 827.756 241.666C827.756 38.3576 651.676 -90.5256 441.107 -90.5256C237.798 -90.5256 99.839 69.2168 99.839 69.2168C87.1322 81.9237 85.317 103.707 99.839 116.413L188.786 199.915C205.124 214.437 225.092 212.622 237.798 198.1C268.658 161.795 326.746 110.968 421.139 110.968C513.717 110.968 597.219 178.132 597.219 277.971C597.219 370.549 520.978 444.975 372.127 444.975H270.473C248.69 444.975 235.983 457.681 235.983 481.28V595.641C235.983 617.424 250.505 631.946 270.473 631.946H372.127C535.5 631.946 622.632 717.263 622.632 811.656C622.632 911.495 528.239 982.29 430.215 982.29C319.485 982.29 212.385 891.527 206.939 884.266C192.417 869.744 176.08 869.744 159.742 884.266L67.1644 973.214C56.2729 985.92 54.4576 1005.89 65.3492 1018.59Z" fill="white"/>
<path d="M274.32 482H280.8V510H274.32V482ZM317.125 482V510H311.805L297.845 493V510H291.445V482H296.805L310.725 499V482H317.125ZM368.758 482V510H363.438L349.478 493V510H343.078V482H348.438L362.358 499V482H368.758ZM391.823 510.48C387.823 510.48 384.703 509.373 382.463 507.16C380.249 504.947 379.143 501.787 379.143 497.68V482H385.623V497.44C385.623 502.453 387.703 504.96 391.863 504.96C393.889 504.96 395.436 504.36 396.503 503.16C397.569 501.933 398.102 500.027 398.102 497.44V482H404.503V497.68C404.503 501.787 403.383 504.947 401.143 507.16C398.929 509.373 395.823 510.48 391.823 510.48ZM432.746 510L427.346 502.2H427.026H421.386V510H414.906V482H427.026C429.506 482 431.653 482.413 433.466 483.24C435.306 484.067 436.719 485.24 437.706 486.76C438.693 488.28 439.186 490.08 439.186 492.16C439.186 494.24 438.679 496.04 437.666 497.56C436.679 499.053 435.266 500.2 433.426 501L439.706 510H432.746ZM432.626 492.16C432.626 490.587 432.119 489.387 431.106 488.56C430.093 487.707 428.613 487.28 426.666 487.28H421.386V497.04H426.666C428.613 497.04 430.093 496.613 431.106 495.76C432.119 494.907 432.626 493.707 432.626 492.16Z" fill="#FF912C"/>
<path d="M283.52 586.48C281.307 586.48 279.16 586.187 277.08 585.6C275.027 584.987 273.373 584.2 272.12 583.24L274.32 578.36C275.52 579.24 276.947 579.947 278.6 580.48C280.253 581.013 281.907 581.28 283.56 581.28C285.4 581.28 286.76 581.013 287.64 580.48C288.52 579.92 288.96 579.187 288.96 578.28C288.96 577.613 288.693 577.067 288.16 576.64C287.653 576.187 286.987 575.827 286.16 575.56C285.36 575.293 284.267 575 282.88 574.68C280.747 574.173 279 573.667 277.64 573.16C276.28 572.653 275.107 571.84 274.12 570.72C273.16 569.6 272.68 568.107 272.68 566.24C272.68 564.613 273.12 563.147 274 561.84C274.88 560.507 276.2 559.453 277.96 558.68C279.747 557.907 281.92 557.52 284.48 557.52C286.267 557.52 288.013 557.733 289.72 558.16C291.427 558.587 292.92 559.2 294.2 560L292.2 564.92C289.613 563.453 287.027 562.72 284.44 562.72C282.627 562.72 281.28 563.013 280.4 563.6C279.547 564.187 279.12 564.96 279.12 565.92C279.12 566.88 279.613 567.6 280.6 568.08C281.613 568.533 283.147 568.987 285.2 569.44C287.333 569.947 289.08 570.453 290.44 570.96C291.8 571.467 292.96 572.267 293.92 573.36C294.907 574.453 295.4 575.933 295.4 577.8C295.4 579.4 294.947 580.867 294.04 582.2C293.16 583.507 291.827 584.547 290.04 585.32C288.253 586.093 286.08 586.48 283.52 586.48ZM317.228 586.48C314.374 586.48 311.788 585.867 309.468 584.64C307.174 583.387 305.361 581.667 304.028 579.48C302.721 577.267 302.068 574.773 302.068 572C302.068 569.227 302.721 566.747 304.028 564.56C305.361 562.347 307.174 560.627 309.468 559.4C311.788 558.147 314.388 557.52 317.268 557.52C319.694 557.52 321.881 557.947 323.828 558.8C325.801 559.653 327.454 560.88 328.788 562.48L324.628 566.32C322.734 564.133 320.388 563.04 317.588 563.04C315.854 563.04 314.308 563.427 312.948 564.2C311.588 564.947 310.521 566 309.748 567.36C309.001 568.72 308.628 570.267 308.628 572C308.628 573.733 309.001 575.28 309.748 576.64C310.521 578 311.588 579.067 312.948 579.84C314.308 580.587 315.854 580.96 317.588 580.96C320.388 580.96 322.734 579.853 324.628 577.64L328.788 581.48C327.454 583.107 325.801 584.347 323.828 585.2C321.854 586.053 319.654 586.48 317.228 586.48ZM362.844 558V586H356.364V574.52H343.644V586H337.164V558H343.644V569.04H356.364V558H362.844ZM391.308 586L385.908 578.2H385.588H379.948V586H373.468V558H385.588C388.068 558 390.215 558.413 392.028 559.24C393.868 560.067 395.282 561.24 396.268 562.76C397.255 564.28 397.748 566.08 397.748 568.16C397.748 570.24 397.242 572.04 396.228 573.56C395.242 575.053 393.828 576.2 391.988 577L398.268 586H391.308ZM391.188 568.16C391.188 566.587 390.682 565.387 389.668 564.56C388.655 563.707 387.175 563.28 385.228 563.28H379.948V573.04H385.228C387.175 573.04 388.655 572.613 389.668 571.76C390.682 570.907 391.188 569.707 391.188 568.16ZM406.883 558H413.363V586H406.883V558ZM429.808 563.28H420.848V558H445.248V563.28H436.288V586H429.808V563.28ZM458.925 563.28H449.965V558H474.365V563.28H465.405V586H458.925V563.28ZM503.531 580.8V586H481.851V558H503.011V563.2H488.291V569.28H501.291V574.32H488.291V580.8H503.531ZM538.367 558V586H533.047L519.087 569V586H512.687V558H518.047L531.967 575V558H538.367Z" fill="#AD00FF"/>
</svg>
