<svg width="272" height="80" viewBox="0 0 272 80" fill="none" xmlns="http://www.w3.org/2000/svg">
<path d="M124.117 71.3879C120.943 71.3879 117.912 71.0218 115.024 70.2895C112.176 69.5572 109.735 68.4791 107.701 67.0552L111.912 58.939C113.295 60.0374 115.004 60.8918 117.038 61.502C119.113 62.1529 121.126 62.4784 123.079 62.4784C126.212 62.4784 128.47 61.7868 129.853 60.4036C131.236 59.061 131.928 57.0879 131.928 54.4842V50.5786L132.538 41.3029L132.477 31.9662V25.9248H143.522V52.9586C143.522 59.2238 141.834 63.8616 138.457 66.8721C135.081 69.8827 130.3 71.3879 124.117 71.3879ZM122.103 57.2913C119.174 57.2913 116.468 56.6404 113.987 55.3385C111.546 53.996 109.572 52.1449 108.067 49.7853C106.603 47.385 105.87 44.5576 105.87 41.3029C105.87 38.0483 106.603 35.2412 108.067 32.8816C109.572 30.4813 111.546 28.6302 113.987 27.3284C116.468 26.0265 119.174 25.3756 122.103 25.3756C124.91 25.3756 127.31 25.9451 129.304 27.0843C131.297 28.1827 132.802 29.9117 133.819 32.2713C134.877 34.6309 135.406 37.6415 135.406 41.3029C135.406 44.9644 134.877 47.9749 133.819 50.3345C132.802 52.6941 131.297 54.4435 129.304 55.5826C127.31 56.7218 124.91 57.2913 122.103 57.2913ZM124.849 48.0766C126.232 48.0766 127.453 47.7919 128.51 47.2223C129.609 46.6527 130.463 45.8594 131.073 44.8423C131.724 43.8253 132.05 42.6455 132.05 41.3029C132.05 39.9604 131.724 38.7806 131.073 37.7635C130.463 36.7464 129.609 35.9735 128.51 35.4446C127.453 34.875 126.232 34.5903 124.849 34.5903C123.466 34.5903 122.225 34.875 121.126 35.4446C120.028 35.9735 119.153 36.7464 118.502 37.7635C117.892 38.7806 117.587 39.9604 117.587 41.3029C117.587 42.6455 117.892 43.8253 118.502 44.8423C119.153 45.8594 120.028 46.6527 121.126 47.2223C122.225 47.7919 123.466 48.0766 124.849 48.0766ZM157.074 59V25.9248H168.669V59H157.074ZM162.872 22.2633C160.756 22.2633 159.048 21.6734 157.746 20.4936C156.444 19.3138 155.793 17.8492 155.793 16.0999C155.793 14.3505 156.444 12.8859 157.746 11.7061C159.048 10.5263 160.756 9.93641 162.872 9.93641C164.987 9.93641 166.696 10.506 167.998 11.6451C169.3 12.7435 169.951 14.1674 169.951 15.9168C169.951 17.7475 169.3 19.2731 167.998 20.4936C166.737 21.6734 165.028 22.2633 162.872 22.2633ZM197.075 59.5492C192.843 59.5492 189.548 58.5118 187.189 56.437C184.829 54.3215 183.649 51.1482 183.649 46.9172V18.5408H195.244V46.7951C195.244 47.9749 195.569 48.9106 196.22 49.6022C196.871 50.2532 197.705 50.5786 198.722 50.5786C200.105 50.5786 201.285 50.2328 202.262 49.5412L205.13 57.6575C204.153 58.3084 202.953 58.7762 201.529 59.061C200.105 59.3865 198.62 59.5492 197.075 59.5492ZM178.828 35.8107V27.1453H202.811V35.8107H178.828ZM229.816 59.5492C225.584 59.5492 222.289 58.5118 219.93 56.437C217.57 54.3215 216.39 51.1482 216.39 46.9172V18.5408H227.985V46.7951C227.985 47.9749 228.31 48.9106 228.961 49.6022C229.612 50.2532 230.446 50.5786 231.463 50.5786C232.846 50.5786 234.026 50.2328 235.003 49.5412L237.871 57.6575C236.894 58.3084 235.694 58.7762 234.27 59.061C232.846 59.3865 231.361 59.5492 229.816 59.5492ZM211.569 35.8107V27.1453H235.552V35.8107H211.569ZM248.444 59V25.9248H259.49V35.5666L257.842 32.8205C258.818 30.3389 260.405 28.4878 262.602 27.2673C264.799 26.0062 267.463 25.3756 270.596 25.3756V35.8107C270.067 35.7294 269.599 35.6887 269.192 35.6887C268.826 35.648 268.419 35.6277 267.972 35.6277C265.612 35.6277 263.7 36.2786 262.236 37.5804C260.771 38.8416 260.039 40.9164 260.039 43.8049V59H248.444Z" fill="#EFC3FF"/>
<rect y="3" width="78.451" height="76.9423" rx="15.0867" fill="#55007C"/>
<path d="M25.922 20.3014C13.4779 22.1314 13.4169 33.874 14.9419 39.5166C19.0594 34.789 29.948 28.1703 40.5621 39.5166C44.2222 35.8565 41.4772 18.0138 25.922 20.3014Z" fill="#DE81FF"/>
<path d="M16.2453 54.5796C18.742 66.9073 30.4709 66.3366 36.0233 64.5103C31.081 60.653 23.8863 50.1362 34.6453 38.9272C30.7937 35.4693 13.1245 39.17 16.2453 54.5796Z" fill="#DE81FF"/>
<path d="M51.3785 64.1612C63.5817 61.1136 62.485 49.4221 60.4112 43.9573C56.7797 49.0678 46.5965 56.7274 34.9157 46.4826C31.6343 50.4856 36.1246 67.9708 51.3785 64.1612Z" fill="#DE81FF"/>
<path d="M59.1387 30.844C57.2663 18.4062 45.5236 18.3851 39.8863 19.9293C44.6278 24.0308 51.2835 34.8968 39.9734 45.5494C43.6459 49.197 61.4791 46.3913 59.1387 30.844Z" fill="#DE81FF"/>
</svg>
